<svg xmlns="http://www.w3.org/2000/svg" version="1.1" xmlns:xlink="http://www.w3.org/1999/xlink" xmlns:svgjs="http://svgjs.dev/svgjs" width="1000" height="1000" viewBox="0 0 1000 1000"><rect width="1000" height="1000" fill="#000000"></rect><g transform="matrix(0.7,0,0,0.7,149.57575757575756,327.4011478002542)"><svg viewBox="0 0 396 196" data-background-color="#ffffff" preserveAspectRatio="xMidYMid meet" height="494" width="1000" xmlns="http://www.w3.org/2000/svg" xmlns:xlink="http://www.w3.org/1999/xlink"><g id="tight-bounds" transform="matrix(1,0,0,1,0.2400000000000091,-0.17069106087278385)"><svg viewBox="0 0 395.52 196.34138212174557" height="196.34138212174557" width="395.52"><g><svg viewBox="0 0 397.4975999999999 197.32308903235426" height="196.34138212174557" width="395.52"><g><rect width="397.4975999999999" height="4.894957256935459" x="0" y="125.33487444472253" fill="#ffffff" opacity="1" stroke-width="0" stroke="transparent" fill-opacity="1" class="rect-r$-0" data-fill-palette-color="secondary" rx="1%" id="r$-0" data-palette-color="#0074d9"></rect></g><g transform="matrix(1,0,0,1,0.9887999999999693,143.04385593447333)"><svg viewBox="0 0 395.52 54.279233097880926" height="54.279233097880926" width="395.52"><g id="textblocktransform"><svg viewBox="0 0 395.52 54.279233097880926" height="54.279233097880926" width="395.52" id="textblock"><g><svg viewBox="0 0 395.52 54.279233097880926" height="54.279233097880926" width="395.52"><g transform="matrix(1,0,0,1,0,0)"><svg width="395.52" viewBox="2.2 -36.04 266.11 36.53" height="54.279233097880926" data-palette-color="#0074d9"><path d="M19.78-11.84L26.95-11.84Q26.68-5.76 23.54-2.64 20.39 0.49 14.65 0.49L14.65 0.49Q8.62 0.49 5.41-3.48 2.2-7.45 2.2-14.79L2.2-14.79 2.2-20.78Q2.2-28.1 5.52-32.07 8.84-36.04 14.75-36.04L14.75-36.04Q20.56-36.04 23.57-32.79 26.59-29.54 27-23.46L27-23.46 19.8-23.46Q19.7-27.22 18.64-28.65 17.58-30.08 14.75-30.08L14.75-30.08Q11.87-30.08 10.67-28.06 9.47-26.05 9.4-21.44L9.4-21.44 9.4-14.72Q9.4-9.42 10.58-7.45 11.77-5.47 14.65-5.47L14.65-5.47Q17.48-5.47 18.55-6.85 19.63-8.23 19.78-11.84L19.78-11.84ZM47.48 0L42.14-12.99 38.57-12.99 38.57 0 31.39 0 31.39-35.55 42.84-35.55Q48.24-35.55 51.18-32.75 54.12-29.96 54.12-24.8L54.12-24.8Q54.12-17.72 48.97-14.89L48.97-14.89 55.2-0.34 55.2 0 47.48 0ZM38.57-29.57L38.57-18.97 42.65-18.97Q44.8-18.97 45.87-20.4 46.95-21.83 46.95-24.22L46.95-24.22Q46.95-29.57 42.77-29.57L42.77-29.57 38.57-29.57ZM77.41-21.17L77.41-15.38 66.23-15.38 66.23-5.96 79.46-5.96 79.46 0 59.05 0 59.05-35.55 79.41-35.55 79.41-29.57 66.23-29.57 66.23-21.17 77.41-21.17ZM92.79 0L83.59 0 83.59-35.55 92.99-35.55Q99.21-35.55 102.91-31.59 106.61-27.64 106.68-20.75L106.68-20.75 106.68-14.99Q106.68-7.98 102.98-3.99 99.28 0 92.79 0L92.79 0ZM93.38-29.57L90.76-29.57 90.76-5.96 92.91-5.96Q96.5-5.96 97.97-7.85 99.43-9.74 99.5-14.38L99.5-14.38 99.5-20.56Q99.5-25.54 98.11-27.5 96.72-29.47 93.38-29.57L93.38-29.57ZM119.33-35.55L119.33 0 112.15 0 112.15-35.55 119.33-35.55ZM147.67-35.55L147.67-29.57 138.88-29.57 138.88 0 131.68 0 131.68-29.57 123.03-29.57 123.03-35.55 147.67-35.55ZM178.77-11.84L185.94-11.84Q185.68-5.76 182.53-2.64 179.38 0.49 173.64 0.49L173.64 0.49Q167.61 0.49 164.4-3.48 161.19-7.45 161.19-14.79L161.19-14.79 161.19-20.78Q161.19-28.1 164.51-32.07 167.83-36.04 173.74-36.04L173.74-36.04Q179.55-36.04 182.56-32.79 185.58-29.54 185.99-23.46L185.99-23.46 178.79-23.46Q178.69-27.22 177.63-28.65 176.57-30.08 173.74-30.08L173.74-30.08Q170.86-30.08 169.66-28.06 168.46-26.05 168.39-21.44L168.39-21.44 168.39-14.72Q168.39-9.42 169.57-7.45 170.76-5.47 173.64-5.47L173.64-5.47Q176.47-5.47 177.55-6.85 178.62-8.23 178.77-11.84L178.77-11.84ZM209.23 0L207.33-7.28 197.54-7.28 195.63 0 188.04 0 199.15-35.55 205.72-35.55 216.9 0 209.23 0ZM202.42-25.93L199.1-13.26 205.74-13.26 202.42-25.93ZM236.33 0L230.98-12.99 227.42-12.99 227.42 0 220.24 0 220.24-35.55 231.69-35.55Q237.09-35.55 240.03-32.75 242.97-29.96 242.97-24.8L242.97-24.8Q242.97-17.72 237.82-14.89L237.82-14.89 244.04-0.34 244.04 0 236.33 0ZM227.42-29.57L227.42-18.97 231.5-18.97Q233.64-18.97 234.72-20.4 235.79-21.83 235.79-24.22L235.79-24.22Q235.79-29.57 231.62-29.57L231.62-29.57 227.42-29.57ZM266.26-21.17L266.26-15.38 255.08-15.38 255.08-5.96 268.31-5.96 268.31 0 247.9 0 247.9-35.55 268.26-35.55 268.26-29.57 255.08-29.57 255.08-21.17 266.26-21.17Z" opacity="1" transform="matrix(1,0,0,1,0,0)" fill="#ffffff" class="wordmark-text-0" data-fill-palette-color="primary" id="text-0"></path></svg></g></svg></g></svg></g></svg></g><g transform="matrix(1,0,0,1,132.83824107876373,0)"><svg viewBox="0 0 131.82111784247246 112.52085021190719" height="112.52085021190719" width="131.82111784247246"><g><svg xmlns="http://www.w3.org/2000/svg" xmlns:xlink="http://www.w3.org/1999/xlink" version="1.1" x="8" y="0" viewBox="25.51 26.206999999999997 48.981710529846865 47.58600000000001" enable-background="new 0 0 100 100" xml:space="preserve" height="112.52085021190719" width="115.82111784247246" class="icon-icon-0" data-fill-palette-color="accent" id="icon-0"><path d="M74.351 60.264c-0.516-2.022-2.298-3.381-4.434-3.381-0.494 0-1.002 0.072-1.541 0.225l-8.83 2.708c0.022-0.134 0.04-0.269 0.052-0.406 0.203-2.296-1.126-4.229-3.47-4.946l-8.419-2.069c-0.453-0.099-0.924-0.149-1.4-0.149-1.262 0-2.407 0.343-3.516 0.674-1.082 0.323-2.105 0.629-3.225 0.629-0.55 0-1.323 0.003-2.008 0.006V51.99c0-0.828-0.671-1.5-1.5-1.5H27.01c-0.828 0-1.5 0.672-1.5 1.5v20.303c0 0.828 0.672 1.5 1.5 1.5h9.051c0.829 0 1.5-0.672 1.5-1.5v-1.988h4.669c0.648 0 1.801 0.188 2.427 0.398l7.754 2.542c0.428 0.143 0.913 0.215 1.443 0.215 0.884 0 1.761-0.203 2.42-0.561l15.555-7.364C73.891 64.411 74.88 62.342 74.351 60.264zM34.561 70.793H28.51V53.49h6.051V70.793zM70.469 62.863l-15.521 7.345c-0.033 0.015-0.064 0.032-0.097 0.05-0.173 0.098-0.559 0.202-0.998 0.202-0.288 0-0.449-0.046-0.5-0.063L45.6 67.855c-0.936-0.314-2.385-0.551-3.37-0.551h-4.669V56.553c0.683-0.003 1.459-0.006 2.008-0.006 1.558 0 2.899-0.4 4.084-0.755 0.983-0.294 1.833-0.548 2.656-0.548 0.265 0 0.514 0.026 0.723 0.072l8.298 2.037c1.219 0.375 1.325 1.283 1.28 1.791-0.063 0.715-0.533 1.487-1.212 1.573-0.131 0.008-0.255 0.013-0.369 0.014l-7.536-0.805c-0.824-0.094-1.562 0.508-1.65 1.332-0.006 0.054-0.008 0.107-0.008 0.16-0.001 0.757 0.57 1.408 1.34 1.49l7.62 0.814c0.025 0.003 0.052 0.005 0.077 0.007 0.277 0.012 0.582 0.001 0.698-0.018 0.885-0.051 1.954-0.196 2.756-0.389l10.898-3.339c0.242-0.068 0.476-0.103 0.693-0.103 0.915 0 1.395 0.604 1.526 1.122C71.532 61.354 71.608 62.238 70.469 62.863zM31.533 68.421c0.4 0 0.78-0.16 1.061-0.439 0.279-0.28 0.439-0.67 0.439-1.061 0-0.39-0.16-0.78-0.439-1.06-0.561-0.561-1.561-0.561-2.121 0-0.279 0.279-0.439 0.67-0.439 1.06 0 0.391 0.16 0.78 0.439 1.061C30.754 68.261 31.143 68.421 31.533 68.421zM57.811 46.535c0 3.077 2.504 5.581 5.582 5.581 3.077 0 5.581-2.504 5.581-5.581 0-3.078-2.504-5.582-5.581-5.582C60.314 40.953 57.811 43.457 57.811 46.535zM65.974 46.535c0 1.423-1.158 2.581-2.581 2.581-1.424 0-2.582-1.158-2.582-2.581 0-1.424 1.158-2.582 2.582-2.582C64.815 43.953 65.974 45.111 65.974 46.535zM47.836 47.199c3.078 0 5.581-2.504 5.581-5.582 0-3.077-2.503-5.581-5.581-5.581-3.077 0-5.581 2.504-5.581 5.581C42.255 44.695 44.759 47.199 47.836 47.199zM47.836 39.036c1.424 0 2.581 1.158 2.581 2.581 0 1.424-1.157 2.582-2.581 2.582-1.423 0-2.581-1.158-2.581-2.582C45.255 40.194 46.413 39.036 47.836 39.036zM58.951 37.37c3.076 0 5.579-2.504 5.579-5.581 0-3.078-2.503-5.582-5.579-5.582-3.078 0-5.582 2.504-5.582 5.582C53.369 34.866 55.873 37.37 58.951 37.37zM58.951 29.207c1.422 0 2.579 1.158 2.579 2.582 0 1.423-1.157 2.581-2.579 2.581-1.424 0-2.582-1.158-2.582-2.581C56.369 30.365 57.527 29.207 58.951 29.207z" fill="#ffffff" data-fill-palette-color="accent"></path></svg></g></svg></g><g><rect width="56.30512107876376" height="4.894957256935459" y="106.62589295497173" x="264.65935892123616" fill="#ffffff" data-fill-palette-color="secondary"></rect><rect width="56.30512107876376" height="4.894957256935459" y="106.62589295497173" x="76.53311999999997" fill="#ffffff" data-fill-palette-color="secondary"></rect></g></svg></g><defs></defs></svg><rect width="395.52" height="196.34138212174557" fill="none" stroke="none" visibility="hidden"></rect></g></svg></g></svg>